PathFileType	4	(X/Y/Z)	C:\Users\Basilio\Documents\Thesis Gigler\squatting_fais\c3dfiles\054\SLS_front_pre5\markers_experimental.trc
DataRate	CameraRate	NumFrames	NumMarkers	Units	OrigDataRate	OrigDataStartFrame	OrigNumFrames
200.000000	200.000000	4	61	mm	200.000000	883	1413
Frame#	Time	FHD			LBHD			RBHD			C7			T10			CLAV			LSHO			LUUPA			LMUPA			LDUPA			LLEP			LMEP			LRAD			LUL			LRFIN			RSHO			RUPA1			RMUPA			RDUPA			RLEP			RMEP			RRAD			RUL			RUFIN			LASI			RASI			USACR			LSACR			RSACR			LTHI1			LTHI2			LTHI3			LTHI4			LLFC			LMFC			LTIB1			LTIB2			LTIB3			LTIB4			LLMAL			LMMAL			LHEE			LMT1			LMT2			LMT5			RTHI			RTHI2			RTHI3			RTHI4			RLFC			RMFC			RTIB1			RTIB2			RTIB3			RTIB4			RLMAL			RMMAL			RHEE			RMT1			RMT2			RMT5			
		X1	Y1	Z1	X2	Y2	Z2	X3	Y3	Z3	X4	Y4	Z4	X5	Y5	Z5	X6	Y6	Z6	X7	Y7	Z7	X8	Y8	Z8	X9	Y9	Z9	X10	Y10	Z10	X11	Y11	Z11	X12	Y12	Z12	X13	Y13	Z13	X14	Y14	Z14	X15	Y15	Z15	X16	Y16	Z16	X17	Y17	Z17	X18	Y18	Z18	X19	Y19	Z19	X20	Y20	Z20	X21	Y21	Z21	X22	Y22	Z22	X23	Y23	Z23	X24	Y24	Z24	X25	Y25	Z25	X26	Y26	Z26	X27	Y27	Z27	X28	Y28	Z28	X29	Y29	Z29	X30	Y30	Z30	X31	Y31	Z31	X32	Y32	Z32	X33	Y33	Z33	X34	Y34	Z34	X35	Y35	Z35	X36	Y36	Z36	X37	Y37	Z37	X38	Y38	Z38	X39	Y39	Z39	X40	Y40	Z40	X41	Y41	Z41	X42	Y42	Z42	X43	Y43	Z43	X44	Y44	Z44	X45	Y45	Z45	X46	Y46	Z46	X47	Y47	Z47	X48	Y48	Z48	X49	Y49	Z49	X50	Y50	Z50	X51	Y51	Z51	X52	Y52	Z52	X53	Y53	Z53	X54	Y54	Z54	X55	Y55	Z55	X56	Y56	Z56	X57	Y57	Z57	X58	Y58	Z58	X59	Y59	Z59	X60	Y60	Z60	X61	Y61	Z61	

884	4.415	-177.3590850830078	1495.583984375	-1082.118286132813	-337.5012207031251	1439.642700195313	-1154.211303710938	-354.8188781738282	1436.80029296875	-1014.648254394531	-392.5252685546876	1292.0029296875	-1074.214477539063	-512.1221313476564	984.5363769531252	-1066.768310546875	-260.8300170898438	1210.032348632813	-1085.674926757813	-309.6611938476563	1297.2548828125	-1219.698608398438	-150.9920806884766	1206.443481445313	-1343.645751953125	-121.8014755249024	1241.972778320313	-1325.680786132813	-81.81790924072267	1205.25732421875	-1352.233154296875	-24.95395088195801	1213.578369140625	-1345.586669921875	-20.06771087646485	1143.598999023438	-1309.75390625	230.5082092285157	1240.56982421875	-1271.341186523438	246.9967651367188	1218.565185546875	-1343.987182617188	322.3268432617188	1266.742431640625	-1288.602294921875	-306.1186218261719	1288.8056640625	-945.7514648437502	-142.3506164550782	1200.123901367188	-824.8723144531252	-111.3666152954102	1233.639770507813	-840.1055908203127	-72.76058197021486	1191.524780273438	-817.320983886719	-28.77414894104005	1191.461059570313	-822.2266235351565	-28.72386360168458	1130.566284179688	-866.2380981445315	234.5651245117188	1245.769653320313	-928.8074951171877	236.7025756835938	1220.812255859375	-851.6364746093752	308.4683227539063	1279.643432617188	-915.3688964843752	-367.4322204589844	798.3958129882815	-1178.8173828125	-349.2626342773438	829.884948730469	-932.6105957031252	-537.7442016601564	881.4749755859377	-1054.855712890625	-546.4173583984376	846.6516113281252	-1080.045654296875	-540.8283691406251	851.1564941406252	-1023.533630371094	-306.0163269042969	586.3712158203126	-1243.783447265625	-223.4999542236329	562.8126220703126	-1241.318237304688	-196.1358032226563	601.4512329101564	-1237.5009765625	-199.3541870117188	509.826873779297	-1224.655883789063	-97.54567718505862	423.2881469726564	-1194.937377929688	-69.06838989257814	454.4399414062501	-1057.671020507813	-124.29150390625	288.3689880371094	-1105.374267578125	-188.6859130859375	258.1975708007813	-1159.116455078125	-161.340072631836	246.9065551757813	-1126.3623046875	-207.7391815185547	196.2982788085938	-1079.33349609375	-332.2785949707032	107.6944580078125	-1102.812744140625	-297.0280151367188	134.7340698242188	-1013.384826660156	-406.4713745117189	105.7785339355469	-1038.954956054688	-197.0240325927735	56.48742294311525	-1018.377136230469	-188.5637664794922	52.87144851684572	-1067.7197265625	-242.3185424804688	37.97391891479493	-1117.823120117188	-203.0368347167969	624.5822753906251	-851.8634033203127	-138.1477966308594	632.5412597656251	-864.9187622070315	-124.3074569702149	661.1727294921876	-874.761657714844	-84.7598342895508	570.5921630859376	-882.8904418945315	-21.12788581848145	511.6494750976564	-895.0087890625002	-11.90083503723145	548.9237060546876	-1026.232788085938	87.54565429687501	464.576385498047	-914.8538208007815	81.24407196044923	363.0790100097657	-883.2281494140627	120.0927886962891	385.2559204101564	-896.1419677734377	158.6536865234375	355.3559570312501	-927.7543945312502	218.7908630371094	180.3734436035157	-919.7099609375002	238.0211791992188	215.7389526367188	-1004.964294433594	192.9377441406251	116.464340209961	-979.6787719726565	383.8952331542969	231.471420288086	-985.6439208984377	380.1329040527344	241.4992065429688	-938.081726074219	349.1247558593751	198.7784881591797	-889.6922607421877	
885	4.42	-177.7318115234375	1497.713745117188	-1082.198852539063	-337.6810607910157	1441.6748046875	-1154.138427734375	-355.1084594726563	1438.6953125	-1014.65869140625	-392.8000793457032	1293.941040039063	-1074.115234375	-511.7931213378907	986.248229980469	-1066.762939453125	-261.0712890625001	1212.130615234375	-1085.669067382813	-310.2310791015626	1299.338012695313	-1219.651000976563	-151.0318298339844	1208.193481445313	-1343.80517578125	-122.1441421508789	1244.28076171875	-1325.59765625	-82.05395507812501	1207.219848632813	-1352.083251953125	-25.35322189331055	1215.654907226563	-1345.527099609375	-20.38032722473145	1145.709106445313	-1309.841674804688	230.0660400390626	1242.708374023438	-1271.119384765625	246.6614990234376	1220.78125	-1343.89794921875	321.7098999023438	1269.005859375	-1288.369506835938	-306.3161621093751	1290.709350585938	-945.7219848632815	-142.4822387695313	1202.260009765625	-824.955261230469	-111.4827957153321	1235.611328125	-840.0734863281252	-72.85919189453126	1193.743041992188	-817.332458496094	-29.0133399963379	1193.616943359375	-821.968688964844	-29.01284408569337	1132.814208984375	-866.195983886719	237.603744506836	1248.066772460938	-931.3770751953127	236.532455444336	1223.047729492188	-851.5838623046877	308.0903320312501	1282.082885742188	-915.3506469726565	-367.2896423339844	800.1302490234377	-1178.748657226563	-348.8957824707032	831.8753051757815	-932.6856079101565	-537.4678955078126	883.1478271484377	-1054.801879882813	-546.3424072265626	848.528747558594	-1079.96044921875	-540.6676025390626	852.9700927734377	-1023.560119628906	-306.0423583984376	587.4481811523439	-1243.746948242188	-223.6824645996094	563.8543701171876	-1241.282592773438	-196.3928375244141	602.3286132812501	-1237.4169921875	-199.6847534179688	510.7599182128907	-1224.6298828125	-97.69081878662112	423.7462463378907	-1195.155029296875	-69.51161956787111	454.8726806640626	-1057.676391601563	-124.6181716918946	288.7624816894532	-1105.426513671875	-189.0397338867188	258.4963989257813	-1159.060180664063	-161.5267486572266	247.1526184082032	-1126.48583984375	-207.8917846679688	196.4546661376954	-1079.352661132813	-332.2616271972657	107.6890182495117	-1102.814331054688	-297.0207519531251	134.732894897461	-1013.382019042969	-406.4703674316407	105.7621994018555	-1038.986328125	-197.0098876953126	56.5050506591797	-1018.404418945313	-188.6029968261719	52.91080856323244	-1067.75244140625	-242.313461303711	37.96267700195313	-1117.825805664063	-202.8289489746094	625.9931030273439	-851.994323730469	-138.0948333740235	634.1354370117189	-864.863952636719	-124.2568359375	662.6115722656251	-874.784118652344	-84.51058959960939	572.0549926757814	-883.0769653320315	-21.06027793884278	512.6849975585939	-895.0417480468752	-11.7127914428711	550.3666381835939	-1026.331176757813	87.43653869628908	465.9227905273439	-914.9141235351565	81.11602783203126	364.4001770019532	-883.2109375000002	119.8967208862305	386.4833374023439	-896.2362060546877	158.4913482666016	356.5425720214844	-927.7029418945315	218.4197235107422	181.6661987304688	-919.7749633789065	237.8838806152344	216.9371643066407	-1004.955627441406	192.9070129394532	117.5942611694336	-979.731628417969	383.4517822265626	232.7393798828126	-985.487976074219	379.9810180664063	242.4740447998047	-937.9196777343752	348.8426208496094	199.8192596435547	-889.6936035156252	
886	4.425	-178.3222198486328	1499.884765625	-1082.073364257813	-338.2983703613282	1443.650024414063	-1154.000732421875	-355.6917419433594	1440.714599609375	-1014.455993652344	-393.1680603027345	1295.848022460938	-1074.104736328125	-511.8702697753907	988.0372314453127	-1066.854370117188	-261.2335205078126	1214.083740234375	-1085.609985351563	-310.7386169433594	1301.211181640625	-1219.606689453125	-151.4081268310547	1210.303955078125	-1343.7216796875	-122.4973907470703	1246.234985351563	-1325.496459960938	-82.51649475097658	1209.363159179688	-1352.078247070313	-25.89179801940919	1217.806884765625	-1345.409790039063	-20.94966506958008	1147.661499023438	-1309.659912109375	229.7330017089844	1244.9267578125	-1271.094482421875	246.2084350585938	1222.9853515625	-1343.649047851563	321.5813598632813	1271.104125976563	-1288.1982421875	-306.5593566894532	1292.746337890625	-945.7637329101565	-143.0142059326172	1204.260620117188	-824.7891845703127	-111.9845962524414	1237.668579101563	-840.0621337890627	-73.11815643310548	1195.861206054688	-817.1419067382815	-29.44125938415528	1195.815185546875	-821.8880004882815	-29.06495094299317	1134.90283203125	-866.0860595703127	234.0527343750001	1250.46923828125	-929.0136718750002	236.0728607177735	1225.3427734375	-851.4402465820315	307.7755432128907	1284.390258789063	-915.3848876953127	-366.8701171875001	801.645690917969	-1178.8818359375	-348.5671691894532	833.463806152344	-932.6644287109377	-537.3318481445314	885.0418701171877	-1054.778076171875	-545.9695434570314	850.272399902344	-1080.087280273438	-540.3372192382814	854.8233642578127	-1023.457336425781	-306.0938110351563	588.9000244140626	-1243.813354492188	-223.831527709961	564.9028320312501	-1241.192260742188	-196.4153137207032	603.2000732421876	-1237.346923828125	-199.6004486083985	511.6734313964845	-1224.835571289063	-98.40054321289065	424.2274780273439	-1195.032470703125	-69.77695465087892	455.356414794922	-1057.732299804688	-124.7992248535157	288.9627990722657	-1105.457885742188	-189.3696746826172	258.8174743652344	-1159.0146484375	-161.8770141601563	247.5088806152344	-1126.596069335938	-208.0065155029297	196.6125488281251	-1079.428588867188	-332.3073425292969	107.6928405761719	-1102.841064453125	-297.0359191894532	134.7275543212891	-1013.374572753906	-406.4727172851564	105.7710113525391	-1038.982299804688	-197.039291381836	56.5310745239258	-1018.398681640625	-188.5990447998047	52.90336990356447	-1067.75830078125	-242.3253479003907	38.00591659545899	-1117.843505859375	-202.6971740722657	627.7538452148439	-851.8942871093752	-137.8858642578125	635.6174316406251	-864.9689941406252	-124.0397491455078	664.2465209960939	-874.836364746094	-84.4511184692383	573.5204467773439	-882.9227294921877	-21.21923637390137	514.3292236328126	-895.0664672851565	-11.6725959777832	551.6153564453126	-1026.255126953125	87.44448852539064	467.1564025878907	-914.8010253906252	81.01134490966798	365.5702819824219	-883.3457641601565	119.9187393188477	387.7221679687501	-896.200622558594	158.4329986572266	357.7545166015626	-927.5845947265627	218.3725280761719	182.8419189453125	-919.7263793945315	237.6728668212891	218.1949157714844	-1004.950988769531	192.4346618652344	118.9460220336914	-979.6360473632815	383.2552795410157	233.9099273681641	-985.3869628906252	379.9178161621094	243.5802154541016	-937.9956665039065	348.7153320312501	201.0456237792969	-889.7178955078127	
887	4.43	-179.0572967529297	1502.173461914063	-1081.999145507813	-338.7495117187501	1445.780517578125	-1153.876342773438	-356.2012939453126	1442.724731445313	-1014.296142578125	-393.6077880859376	1297.789794921875	-1074.070434570313	-511.658416748047	989.7049560546877	-1066.832641601563	-261.6523132324219	1216.1298828125	-1085.584350585938	-311.1135559082032	1303.211669921875	-1219.66357421875	-151.3903350830078	1212.52685546875	-1343.814331054688	-122.9903335571289	1248.410766601563	-1325.462768554688	-82.87939453125001	1211.393310546875	-1352.033081054688	-26.35615539550782	1219.960327148438	-1345.407348632813	-21.45685005187989	1150.193115234375	-1309.587768554688	229.3278350830079	1247.294921875	-1270.926635742188	246.2410736083985	1225.122436523438	-1343.511596679688	320.7157897949219	1272.97412109375	-1287.843994140625	-306.9137573242188	1294.664794921875	-945.7412719726565	-143.3245239257813	1206.476806640625	-824.7173461914065	-112.1557312011719	1239.8388671875	-839.7002563476565	-73.35365295410158	1198.106201171875	-816.9139404296877	-29.71021461486817	1198.129150390625	-821.8086547851565	-29.42592811584473	1137.0673828125	-866.0059814453127	236.8179321289063	1252.763793945313	-931.260925292969	235.884506225586	1227.7734375	-851.471130371094	307.5042724609376	1286.726806640625	-915.371765136719	-366.6328430175782	803.4717407226565	-1178.87646484375	-348.4214477539063	835.366149902344	-932.7038574218752	-536.9817504882814	886.8597412109377	-1054.838623046875	-545.7504272460939	852.0661621093752	-1080.023681640625	-540.0580444335939	856.561706542969	-1023.424865722656	-306.3547058105469	590.2885742187501	-1243.738159179688	-224.0459289550782	565.8389282226564	-1241.15625	-196.3700256347657	604.1772460937501	-1237.40087890625	-200.5192413330079	512.4788818359376	-1224.37060546875	-98.27544403076175	424.666473388672	-1194.942016601563	-70.21495819091798	455.7998046875001	-1057.723022460938	-125.0052719116211	289.2557067871094	-1105.475830078125	-189.7149047851563	259.0910949707032	-1159.046630859375	-161.779281616211	247.6700134277344	-1126.984497070313	-208.0767364501954	196.7567901611329	-1079.426147460938	-332.2904663085938	107.694206237793	-1102.812255859375	-297.0350341796876	134.7159576416016	-1013.364135742188	-406.4845275878907	105.7595748901367	-1038.9970703125	-197.0707092285157	56.5382537841797	-1018.369689941406	-188.6016540527344	52.91318511962892	-1067.764770507813	-242.2500762939454	37.95613098144532	-1117.82421875	-202.5092773437501	629.1102905273439	-852.0438232421877	-137.7844390869141	637.2743530273439	-864.965515136719	-123.9442749023438	665.7189331054689	-874.835876464844	-84.34645080566408	575.0708618164064	-882.8997802734377	-21.04426956176758	515.4984130859376	-894.9561767578127	-11.45041656494141	553.2592773437501	-1026.32177734375	87.44577789306642	468.4122314453126	-914.8563232421877	80.95881652832033	366.9880981445313	-883.303161621094	119.6355133056641	389.0569152832032	-896.0838623046877	158.3388061523438	359.1987915039063	-927.691589355469	218.1253814697266	183.9760437011719	-919.7575683593752	237.5585021972657	219.3827362060547	-1004.938415527344	192.3320312500001	120.2184982299805	-979.4942626953127	383.5338745117188	234.9196014404297	-985.607849121094	379.6678466796876	244.6134948730469	-937.841247558594	348.8150024414063	202.0299987792969	-889.648864746094	
